<svg width="95" height="95" viewBox="0 0 95 95" fill="none" xmlns="http://www.w3.org/2000/svg">
<g opacity="0.801749">
<path d="M42.2744 40.1645C45.7196 62.8879 47.7297 73.9524 39.365 83.9108C36.9222 86.8191 32.1856 67.1845 28.6873 44.478C25.9144 26.4799 25.9222 25.5844 25.5971 16.155C25.4803 12.7658 32.0594 1.55579 32.9907 2.86619C36.4197 7.69086 39.3452 21.4315 42.0934 38.9898" fill="#000673"/>
<path d="M69.6056 51.7454C72.3488 67.3768 73.9598 75.141 67.3114 81.978C65.3699 83.9747 61.6005 70.4657 58.815 54.8458C56.6072 42.4648 56.6133 41.849 56.3531 35.364C56.2595 33.0331 61.2296 24.7997 61.9703 25.7021C64.6973 29.0247 67.2841 39.0113 69.4723 51.0898" fill="#000650"/>
<path d="M26.8664 41.613C21.3275 64.7049 18.3555 90.9782 7.28981 82.8355C4.09042 80.4812 7.02953 64.2645 12.5124 41.1709C16.8584 22.8659 17.6928 22.1711 20.5411 12.7965C22.9683 4.80795 32.2329 0.789365 32.5687 2.48026C33.7313 8.33505 31.3496 22.5461 27.1501 40.4183" fill="url(#paint0_linear_2317_1153)"/>
<path d="M57.5334 54.2111C52.3827 70.9976 49.3083 87.4949 39.113 84.2231C34.6449 82.7892 39.2399 70.6375 44.3346 53.8489C48.3728 40.5416 49.4291 35.0724 52.0456 28.1773C57.3083 14.3088 62.5193 26.237 63.1427 27.9127C64.1893 30.7263 61.6995 40.3497 57.797 53.3425" fill="url(#paint1_linear_2317_1153)"/>
<path d="M85.6513 52.0343C80.4977 68.8433 76.9416 85.1516 66.9026 82.0545C62.8455 80.8028 67.3704 68.4496 72.4701 51.6666C76.5124 38.3638 76.4961 38.8616 78.4855 33.7931C79.6659 30.7859 85.3113 28.4777 89.4215 27.4889C93.1239 26.5982 89.8226 37.1146 85.9151 51.166" fill="url(#paint2_linear_2317_1153)"/>
</g>
<defs>
<linearGradient id="paint0_linear_2317_1153" x1="13.525" y1="66.6128" x2="17.9726" y2="13.1507" gradientUnits="userSpaceOnUse">
<stop offset="0.290155" stop-color="#5300D1"/>
<stop offset="1" stop-color="#4A9EF5"/>
</linearGradient>
<linearGradient id="paint1_linear_2317_1153" x1="45.2078" y1="72.3645" x2="47.8945" y2="33.3705" gradientUnits="userSpaceOnUse">
<stop offset="0.290155" stop-color="#5300D1"/>
<stop offset="1" stop-color="#4A9EF5"/>
</linearGradient>
<linearGradient id="paint2_linear_2317_1153" x1="73.3292" y1="70.1788" x2="76.0349" y2="31.1935" gradientUnits="userSpaceOnUse">
<stop offset="0.290155" stop-color="#5300D1"/>
<stop offset="1" stop-color="#4A9EF5"/>
</linearGradient>
</defs>
</svg>
