<svg width="57" height="55" viewBox="0 0 57 55" fill="none" xmlns="http://www.w3.org/2000/svg">
<g clip-path="url(#clip0_2010_43)">
<g opacity="0.801749">
<path d="M21.7514 24.5544C23.5928 38.4622 24.6969 45.2316 19.3439 51.4043C17.7806 53.2071 15.0918 41.2036 13.217 27.3066C11.7311 16.2913 11.7481 15.7421 11.673 9.96214C11.646 7.88469 15.9021 0.958426 16.4653 1.75468C18.5391 4.68636 20.1779 13.0896 21.6545 23.8355" fill="#000673"/>
<path d="M39.3176 31.6546C40.8198 41.2225 41.7212 45.973 37.4748 50.2199C36.2346 51.4601 34.0625 43.2023 32.5338 33.6418C31.3221 26.0638 31.3342 25.6859 31.2594 21.7096C31.2326 20.2804 34.4493 15.1901 34.8999 15.7379C36.5587 17.7547 38.0396 23.8608 39.2432 31.2535" fill="#000650"/>
<path d="M11.7217 25.4436C8.02906 39.6082 5.85844 55.699 -0.778822 50.8036C-2.69784 49.3882 -0.684382 39.448 2.97414 25.2827C5.87404 14.0547 6.39235 13.6234 8.25717 7.8684C9.84627 2.96428 15.551 0.435907 15.7327 1.46745C16.3619 5.03922 14.7157 13.7485 11.911 24.7108" fill="url(#paint0_linear_2010_43)"/>
<path d="M31.4383 33.1585C28.0438 43.4672 25.9296 53.5829 19.7065 51.6601C16.9792 50.8175 19.9691 43.3483 23.3292 33.0389C25.9925 24.8671 26.7162 21.5132 28.4184 17.2751C31.8421 8.75061 34.8835 16.0073 35.2439 17.0275C35.8491 18.7407 34.1877 24.6468 31.6121 32.6251" fill="url(#paint1_linear_2010_43)"/>
<path d="M49.5264 31.819C46.1221 42.1447 43.7092 52.1516 37.5645 50.3342C35.0812 49.5997 38.0375 42.0054 41.4082 31.6961C44.08 23.5245 44.0632 23.8293 45.3581 20.7123C46.1263 18.863 49.6368 17.4068 52.1832 16.7699C54.477 16.1962 52.2996 22.657 49.7008 31.2856" fill="url(#paint2_linear_2010_43)"/>
</g>
</g>
<defs>
<linearGradient id="paint0_linear_2010_43" x1="3.24482" y1="40.8346" x2="5.57575" y2="8.02575" gradientUnits="userSpaceOnUse">
<stop offset="0.290155" stop-color="#5300D1"/>
<stop offset="1" stop-color="#4A9EF5"/>
</linearGradient>
<linearGradient id="paint1_linear_2010_43" x1="23.6144" y1="44.3588" x2="24.9562" y2="20.4369" gradientUnits="userSpaceOnUse">
<stop offset="0.290155" stop-color="#5300D1"/>
<stop offset="1" stop-color="#4A9EF5"/>
</linearGradient>
<linearGradient id="paint2_linear_2010_43" x1="41.6863" y1="43.0174" x2="43.0364" y2="19.0928" gradientUnits="userSpaceOnUse">
<stop offset="0.290155" stop-color="#5300D1"/>
<stop offset="1" stop-color="#4A9EF5"/>
</linearGradient>
<clipPath id="clip0_2010_43">
<rect width="57" height="55" fill="white"/>
</clipPath>
</defs>
</svg>
